<?xml version="1.0" standalone="no"?><!DOCTYPE svg PUBLIC "-//W3C//DTD SVG 1.1//EN" "http://www.w3.org/Graphics/SVG/1.1/DTD/svg11.dtd"><svg t="1745582345997" class="icon" viewBox="0 0 1024 1024" version="1.1" xmlns="http://www.w3.org/2000/svg" p-id="16685" xmlns:xlink="http://www.w3.org/1999/xlink" width="20" height="20"><path d="M523.42 282.34a18.15 18.15 0 0 0-19.08-18.15h-25.13v36.3h25.13a18.15 18.15 0 0 0 19.08-18.15z" p-id="16686" fill="#3D50F5"></path><path d="M812.887 90.138H207.893a73.065 73.065 0 0 0-71.67 73.065v698.071a72.6 72.6 0 0 0 73.066 72.6h604.995a72.6 72.6 0 0 0 73.064-72.6v-698.07a73.065 73.065 0 0 0-74.46-73.066z m-377.423 134.96h73.064a56.776 56.776 0 0 1 58.638 57.243 51.657 51.657 0 0 1-28.853 46.538l38.626 74.46h-51.191l-31.646-66.083h-14.893v66.55h-43.745z m-186.153 0h43.746v68.877h46.538V225.1h43.746v178.706h-41.419v-70.738h-46.538v70.738h-44.211zM528.54 809.153H265.134a23.734 23.734 0 1 1 0-46.538h265.267a23.734 23.734 0 0 1 0 46.538z m156.368-119.603H265.134a23.734 23.734 0 0 1-23.734-23.735 23.269 23.269 0 0 1 23.734-23.269H686.77a23.269 23.269 0 0 1 23.27 23.27 23.734 23.734 0 0 1-23.27 23.734z m93.076-120.068h-512.85a24.2 24.2 0 0 1 0-46.539h515.177a24.2 24.2 0 0 1 0 46.539z" p-id="16687" fill="#3D50F5"></path></svg>