<?xml version="1.0" standalone="no"?><!DOCTYPE svg PUBLIC "-//W3C//DTD SVG 1.1//EN" "http://www.w3.org/Graphics/SVG/1.1/DTD/svg11.dtd"><svg t="1745582208991" class="icon" viewBox="0 0 1024 1024" version="1.1" xmlns="http://www.w3.org/2000/svg" p-id="8128" xmlns:xlink="http://www.w3.org/1999/xlink" width="20" height="20"><path d="M925.6 912c0-200.8-112-372.8-268.8-439.2 71.2-48 114.4-128.8 113.6-214.4C770.4 116 655.2 0 512 0S252.8 116 252.8 258.4c0 89.6 44.8 168 113.6 214.4-156.8 66.4-268.8 238.4-268.8 440V917.6C98.4 976 283.2 1024 512 1024c228.8 0 413.6-48 413.6-107.2v-4.8zM442.4 515.2c3.2-4.8 8.8-8 15.2-8H560c9.6 0 17.6 8 17.6 17.6 0 2.4-0.8 4.8-1.6 7.2l-25.6 54.4c-3.2 6.4-8.8 9.6-16 10.4h-50.4c-6.4 0-12.8-4-16-9.6l-26.4-54.4c-3.2-6.4-2.4-12.8 0.8-17.6z m177.6 325.6l-89.6 122.4c-3.2 4.8-8.8 7.2-13.6 7.2-5.6 0-10.4-2.4-13.6-7.2l-93.6-122.4c-3.2-4.8-4.8-10.4-3.2-16L464 634.4c2.4-7.2 8.8-12.8 16.8-12.8h57.6c7.2 0 14.4 4.8 16.8 12l68 190.4c0.8 5.6 0 12-3.2 16.8z" fill="#3D50F5" p-id="8129"></path></svg>