<?xml version="1.0" standalone="no"?><!DOCTYPE svg PUBLIC "-//W3C//DTD SVG 1.1//EN" "http://www.w3.org/Graphics/SVG/1.1/DTD/svg11.dtd"><svg t="1745582162241" class="icon" viewBox="0 0 1024 1024" version="1.1" xmlns="http://www.w3.org/2000/svg" p-id="7027" xmlns:xlink="http://www.w3.org/1999/xlink" width="20" height="20"><path d="M967.1 877.38c0 28.7-28.87 50.22-57.74 50.22s-57.74-21.52-57.74-50.22c0-35.87 28.87-114.79 57.74-114.79s57.74 78.92 57.74 114.79z m-86.62-416.11v251.1c0 14.35 14.44 21.52 28.87 21.52s28.87-7.17 28.87-21.52v-251.1c0-14.35-14.44-28.7-28.87-28.7s-28.87 14.35-28.87 28.7z m21.66-57.39l-72.18 14.35v236.75c0 71.74-86.62 136.31-310.38 136.31-216.54 0-303.16-64.57-303.16-136.31V418.23l-72.18-14.35c-36.09-7.17-64.96-43.05-64.96-78.92 0-43.05 28.87-71.74 64.96-78.92l360.9-86.09H541.23l360.9 86.09c36.09 7.17 64.96 35.87 64.96 78.92 0.01 35.87-28.86 71.74-64.95 78.92z m-129.93 28.69l-230.98 57.39h-21.65-14.44l-230.98-57.39v222.4c0 28.7 79.4 78.92 245.41 78.92s252.63-50.22 252.63-78.92v-222.4h0.01z m115.49-78.91c14.44-7.17 21.65-14.35 21.65-28.7s-7.22-28.7-21.65-28.7l-360.9-78.92-7.22-7.17v7.17l-360.9 78.92c-14.44 0-21.65 14.35-21.65 28.7s7.22 21.52 21.65 28.7l360.9 78.92h7.22l360.9-78.92z" p-id="7028" fill="#23262F"></path></svg>