<?xml version="1.0" standalone="no"?><!DOCTYPE svg PUBLIC "-//W3C//DTD SVG 1.1//EN" "http://www.w3.org/Graphics/SVG/1.1/DTD/svg11.dtd"><svg t="1745582289018" class="icon" viewBox="0 0 1024 1024" version="1.1" xmlns="http://www.w3.org/2000/svg" p-id="13651" xmlns:xlink="http://www.w3.org/1999/xlink" width="20" height="20"><path d="M151.94957013 309.15418347l70.70736854-24.90975254c23.4826304-8.4329888 24.52053653-24.52053653 2.85424213-36.715936L128.59667733 194.2060576c-5.70848427-3.11371947-14.530688-5.70848427-22.44472426-6.87612907-19.46074347 2.72450453-24.78001387 18.81205227-11.28723094 37.8835808l57.084848 83.94067414z m254.80600214-79.39983467L159.3446528 316.8087424l9.21141867 30.61823573 187.99078293 12.97382934 353.53684053-124.28928214c129.47881387-45.6678784 234.17761387-116.50498453 226.78253227-141.80395093-7.52482133-25.2989664-124.5487584-6.87612907-254.02757333 38.79174827L627.180928 152.6898048 361.3471712 51.88315307c-19.46074347-7.265344-51.1168864-7.65455893-70.70736853-0.77842987-19.46074347 7.00586773-23.74210667 25.2989664-9.21141867 40.99730027l125.32718827 137.65232533z m-306.57157974-42.94337387c1.68659733 0 3.89214827 0.38921493 6.0976992 0.38921494 2.07581227-0.38921493 4.2813632-0.38921493 6.35717654-0.38921494h-12.45487574z m842.39071894 67.46391147c-21.6662944-4.54084053-43.98128-8.04377387-66.03678934-11.54670827-42.164944 21.79603307-94.4494752 43.98128-148.93955733 63.31228587l-197.98063147 69.40998507c-0.6486912 204.72702187-0.38921493 409.06482987-0.38921493 613.79185173 0 2.72450453 1.03790613 5.449008 2.07581227 10.37906347 5.3192704-1.816336 10.63853973-2.72450453 14.919904-5.449008 115.59681707-69.02077013 240.92400533-82.12433813 369.10543573-68.6315552 73.04265707 7.65455893 77.32402133 6.0976992 77.32402133-73.69134934V320.96036693c0.5189536-51.63584-1.816336-56.69563307-50.07898026-66.68548053z m-26.9855648 514.93127467s-209.39760107-1.1676448-291.00298454 42.164944v-48.7815968s107.42330453-38.27279573 291.00298454-38.27279574v44.88944854z m0-172.4221888s-209.39760107-1.1676448-291.00298454 42.16494506v-48.78159786s107.42330453-38.27279573 291.00298454-38.27279467v44.88944747z m0-180.33622294s-209.39760107-1.1676448-291.00298454 42.164944v-48.26264426s107.42330453-38.27279573 291.00298454-38.27279574v44.370496zM127.16955627 431.49739093l-16.99571627-57.084848-61.10673387-89.77889706c-3.11371947-4.54084053-6.0976992-9.6006336-8.17351253-14.27121174-7.52482133 8.4329888-9.6006336 21.79603307-9.6006336 43.98128V875.33208213c0 48.26264427 9.6006336 58.2524928 54.61981973 52.54400747 108.2017344-12.97382933 215.10608533-9.21141867 318.24802667 30.6182368 29.19111573 11.15749333 56.82537067 26.85582613 88.74099093 41.77572907 0.6486912-10.37906347 1.68659733-19.59048213 1.68659734-28.80189974 0-194.73717333 0-389.6040864 0.38921493-584.34125973l-129.47881387 46.05709227L127.16955627 431.49739093z m274.91543786 380.0034528C320.4796096 768.16825387 111.08200853 769.20616107 111.08200853 769.20616107v-44.88944854c183.4499424 0 291.0029856 38.27279573 291.0029856 38.27279574v48.91133546z m0-172.5519264C320.4796096 595.61632853 111.08200853 596.78397227 111.08200853 596.78397227v-44.88944747c183.4499424 0 291.0029856 38.27279573 291.0029856 38.27279467v48.78159786z" p-id="13652" fill="#3D50F5"></path></svg>